<svg width="28" height="28" viewBox="0 0 28 28" fill="none" xmlns="http://www.w3.org/2000/svg">
<path d="M3.33331 2H24.6664C25.4028 2 25.9997 2.59684 25.9997 3.33314L26 5.44753C26.0001 5.80123 25.8596 6.14044 25.6095 6.39053L17.0569 14.9426C16.8069 15.1926 16.6664 15.5318 16.6664 15.8854V24.2919C16.6664 25.1594 15.8512 25.7959 15.0098 25.5855L12.3432 24.9188C11.7496 24.7704 11.3332 24.2371 11.3332 23.6252V15.8854C11.3332 15.5318 11.1927 15.1926 10.9427 14.9426L2.39051 6.39045C2.14046 6.14041 2 5.80127 2 5.44766V3.33331C2 2.59695 2.59694 2 3.33331 2Z" stroke="black" stroke-width="3" stroke-linecap="round" stroke-linejoin="round"/>
</svg>
